<?xml version="1.0" encoding="utf-8"?>
<!-- Generator: Adobe Illustrator 18.0.0, SVG Export Plug-In . SVG Version: 6.00 Build 0)  -->
<!DOCTYPE svg PUBLIC "-//W3C//DTD SVG 1.1//EN" "http://www.w3.org/Graphics/SVG/1.1/DTD/svg11.dtd">
<svg version="1.1" xmlns="http://www.w3.org/2000/svg" xmlns:xlink="http://www.w3.org/1999/xlink" x="0px" y="0px"
	 viewBox="0 0 200 200" enable-background="new 0 0 200 200" xml:space="preserve">
<g id="Layer_2">
	<circle fill="#FFFFCC" cx="101.6" cy="91.4" r="78.1"/>
</g>
<g id="Layer_3">
	<path fill="#FF8539" d="M101,38.8C74,39,52.2,61.3,52.2,88.9c0,26.3,44.2,92.6,48.8,99.3V38.8z"/>
</g>
<g id="Layer_4">
	<path fill="#2A86A5" d="M86.3,128.7c1.7,16.5-3.2,30.5-9,21.3c-5.8-9.3-15-28.6-15.4-29.5c0,0-9.5-19.3-9.6-31.5
		C52.2,78.1,84.5,111.2,86.3,128.7z"/>
</g>
<g id="Layer_4_copy">
	<g id="Layer_3_copy">
		<path fill="#C54B00" d="M101,38.8c27,0.2,48.7,22.8,48.7,50.4c0,26.3-43.7,92.6-48.7,99.3V38.8z"/>
	</g>
	<path fill="#045D7B" d="M115.4,129c-1.7,16.5,3.6,30.6,9.4,21.4c5.8-9.3,14.9-28.5,15.2-29.4c0,0,9.5-19.5,9.6-31.7
		C149.7,78.4,117.2,111.5,115.4,129z"/>
</g>
<g id="Layer_7">
	<path fill="#FFFF39" d="M101,49.1c-0.2,0-0.3,0-0.5,0c-21.6,0-37.6,10.4-37.6,23.2c0,12.8,7.2,22.6,28.9,22.6c2.5,0,5.8,0,9.3,0.1
		V49.1z"/>
</g>
<g id="Layer_10" display="none">
	<ellipse display="inline" fill="#FFFFFF" cx="82.1" cy="67.9" rx="12.2" ry="9.3"/>
</g>
<g id="Layer_11">
	<path d="M88,69.1c0,1.7-3.4,4.3-6.6,4.3s-6.3-2.3-6.3-4s3.1,2,6.3,2S88,67.4,88,69.1z"/>
</g>
<g id="Layer_9">
	<path fill="#4C9CB7" d="M102.2,49.1c0,5.3-0.6,16.3-0.6,22.9c-3.2,1.1-2.9,0.8-5.1,1.5C91,66.2,69.6,49,53.5,42.9
		c13-2.6,20.4-2.5,28.4-1.4C92.8,43,99,45.8,102.2,49.1z"/>
</g>
<g id="Layer_7_copy">
	<path fill="#FFFF39" d="M101,49.1c0,0,0.3,0,0.5,0c21.6,0,37.6,10.4,37.6,23.2c0,12.8-7.2,22.6-28.8,22.6c-2.5,0-6.3,0-9.3,0.1
		V49.1z"/>
</g>
<g id="Layer_10_copy" display="none">
	<ellipse display="inline" fill="#FFFFFF" cx="119.8" cy="67.9" rx="12.2" ry="9.3"/>
</g>
<g id="Layer_11_copy">
	<path d="M113.9,69.1c0,1.7,3.4,4.3,6.6,4.3c3.2,0,6.3-2.3,6.3-4s-3.1,2-6.3,2C117.4,71.4,113.9,67.4,113.9,69.1z"/>
</g>
<g id="Layer_9_copy">
	<path fill="#034961" d="M101,47.9c0,5.3,0,16.9,0,23.4c3.2,1.1,3,0.6,5.2,1.4c5.5-7.2,28.1-24.8,44.2-30.9
		c-13-2.6-20.4-2.5-28.4-1.4C111.2,42,104.2,44.6,101,47.9z"/>
</g>
<g id="Layer_8">
	<path fill="#FF8539" d="M107.7,75.6c0,3.7-3,13.6-6.8,13.6c-3.7,0-6.8-9.9-6.8-13.6c0-3.7,3-6.8,6.8-6.8
		C104.6,68.8,107.7,71.9,107.7,75.6z"/>
</g>
</svg>
